<?xml version="1.0" encoding="UTF-8" standalone="no"?>
<!-- Created with Inkscape (http://www.inkscape.org/) -->

<svg
   width="24.827587mm"
   height="17.321314mm"
   viewBox="0 0 24.827588 17.321314"
   version="1.1"
   id="svg15741"
   inkscape:version="1.3 (0e150ed6c4, 2023-07-21)"
   sodipodi:docname="phyto_oct_logo_v2.svg"
   xmlns:inkscape="http://www.inkscape.org/namespaces/inkscape"
   xmlns:sodipodi="http://sodipodi.sourceforge.net/DTD/sodipodi-0.dtd"
   xmlns:xlink="http://www.w3.org/1999/xlink"
   xmlns="http://www.w3.org/2000/svg"
   xmlns:svg="http://www.w3.org/2000/svg">
  <sodipodi:namedview
     id="namedview15743"
     pagecolor="#ffffff"
     bordercolor="#999999"
     borderopacity="1"
     inkscape:pageshadow="0"
     inkscape:pageopacity="0"
     inkscape:pagecheckerboard="0"
     inkscape:document-units="mm"
     showgrid="false"
     width="209mm"
     fit-margin-top="0"
     fit-margin-left="0"
     fit-margin-right="0"
     fit-margin-bottom="0"
     inkscape:zoom="1.4142136"
     inkscape:cx="40.65864"
     inkscape:cy="148.13887"
     inkscape:window-width="1920"
     inkscape:window-height="1137"
     inkscape:window-x="-8"
     inkscape:window-y="-8"
     inkscape:window-maximized="1"
     inkscape:current-layer="layer1"
     inkscape:showpageshadow="0"
     inkscape:deskcolor="#d1d1d1" />
  <defs
     id="defs15738">
    <linearGradient
       id="linearGradient7"
       inkscape:collect="always">
      <stop
         style="stop-color:#ffffff;stop-opacity:1;"
         offset="0"
         id="stop7" />
      <stop
         style="stop-color:#539d12;stop-opacity:1;"
         offset="0.73886639"
         id="stop8" />
    </linearGradient>
    <linearGradient
       id="linearGradient4"
       inkscape:collect="always">
      <stop
         style="stop-color:#ff9521;stop-opacity:1;"
         offset="0"
         id="stop5" />
      <stop
         style="stop-color:#f15a29;stop-opacity:1;"
         offset="1"
         id="stop6" />
    </linearGradient>
    <linearGradient
       id="linearGradient3"
       inkscape:collect="always">
      <stop
         style="stop-color:#000000;stop-opacity:1;"
         offset="0"
         id="stop3" />
      <stop
         style="stop-color:#000000;stop-opacity:0;"
         offset="1"
         id="stop4" />
    </linearGradient>
    <linearGradient
       id="linearGradient1"
       inkscape:collect="always">
      <stop
         style="stop-color:#dbffd1;stop-opacity:1;"
         offset="0"
         id="stop1" />
      <stop
         style="stop-color:#539d12;stop-opacity:1;"
         offset="0.43016195"
         id="stop2" />
    </linearGradient>
    <clipPath
       clipPathUnits="userSpaceOnUse"
       id="clipath_lpe_path-effect12137">
      <path
         style="display:block;fill:none;stroke:#000000;stroke-width:0.01;stroke-linecap:butt;stroke-linejoin:miter;stroke-miterlimit:4;stroke-dasharray:none;stroke-opacity:1"
         d="m 61.110233,40.826071 2.771553,-3.189899 c 0.646602,-2.347037 1.736487,-3.984265 3.291887,-5.332804 0.590352,-0.511836 1.27094,-0.991695 1.997822,-1.482405 0.54516,-0.36803 1.096189,-0.752133 1.660159,-1.137507 1.355601,-0.926312 2.69311,-1.962221 3.879739,-3.214727 0.365062,-0.385319 0.744271,-0.760809 1.090401,-1.172507 0.24955,-0.296813 0.511421,-0.585372 0.75183,-0.895156 0.46555,-0.599884 0.9008,-1.124093 1.229521,-1.607532 l 0.488069,0.278897 c -1.054701,1.77108 -1.4561,2.406208 -2.5136,3.781576 -1.4727,1.915369 -3.274679,3.447521 -5.034679,4.750792 -1.03314,0.765035 -1.957661,1.47533 -2.73122,2.228379 -2.336663,2.507766 -1.829282,3.508722 -2.654427,4.792213 -0.725186,0.920911 -1.656689,1.65426 -2.485033,2.481392 z"
         id="path12139"
         sodipodi:nodetypes="ccssssssccsscccc" />
    </clipPath>
    <inkscape:path-effect
       effect="powerclip"
       id="path-effect12137"
       is_visible="true"
       lpeversion="1"
       inverse="true"
       flatten="false"
       hide_clip="false"
       message="Füllregel Gerade-Ungerade im &lt;b&gt;Füllung und Kontur&lt;/b&gt;-Dialog verwenden, wenn das Anwenden des Ausschnitts mit nachfolgendem Umwandeln in Pfade kein Ergebnis bringt" />
    <clipPath
       clipPathUnits="userSpaceOnUse"
       id="clipath_lpe_path-effect12137-7">
      <path
         style="display:none;fill:none;stroke:#000000;stroke-width:0.01;stroke-linecap:butt;stroke-linejoin:miter;stroke-miterlimit:4;stroke-dasharray:none;stroke-opacity:1"
         d="m 61.110233,40.826071 2.771553,-3.189899 c 0.646602,-2.347037 1.736487,-3.984265 3.291887,-5.332804 0.590352,-0.511836 1.27094,-0.991695 1.997822,-1.482405 0.54516,-0.36803 1.096189,-0.752133 1.660159,-1.137507 1.355601,-0.926312 2.69311,-1.962221 3.879739,-3.214727 0.365062,-0.385319 0.744271,-0.760809 1.090401,-1.172507 0.24955,-0.296813 0.511421,-0.585372 0.75183,-0.895156 0.46555,-0.599884 0.9008,-1.124093 1.229521,-1.607532 l 0.488069,0.278897 c -1.054701,1.77108 -1.4561,2.406208 -2.5136,3.781576 -1.4727,1.915369 -3.274679,3.447521 -5.034679,4.750792 -1.03314,0.765035 -1.957661,1.47533 -2.73122,2.228379 -2.336663,2.507766 -1.829282,3.508722 -2.654427,4.792213 -0.725186,0.920911 -1.656689,1.65426 -2.485033,2.481392 z"
         id="path12139-4"
         sodipodi:nodetypes="ccssssssccsscccc" />
      <path
         id="lpe_path-effect12137-4"
         style="fill:none;stroke:#000000;stroke-width:0.01;stroke-linecap:butt;stroke-linejoin:miter;stroke-miterlimit:4;stroke-dasharray:none;stroke-opacity:1"
         class="powerclip"
         d="M 57.541736,17.940038 H 83.017995 V 44.797467 H 57.541736 Z m 3.568497,22.886033 1.742022,0.280712 c 0.828344,-0.827132 1.759847,-1.560481 2.485033,-2.481392 0.825145,-1.283491 0.317764,-2.284447 2.654427,-4.792213 0.773559,-0.753049 1.69808,-1.463344 2.73122,-2.228379 1.76,-1.303271 3.561979,-2.835423 5.034679,-4.750792 1.0575,-1.375368 1.458899,-2.010496 2.5136,-3.781576 l -0.488069,-0.278897 c -0.328721,0.483439 -0.763971,1.007648 -1.229521,1.607532 -0.240409,0.309784 -0.50228,0.598343 -0.75183,0.895156 -0.34613,0.411698 -0.725339,0.787188 -1.090401,1.172507 -1.186629,1.252506 -2.524138,2.288415 -3.879739,3.214727 -0.56397,0.385374 -1.114999,0.769477 -1.660159,1.137507 -0.726882,0.49071 -1.40747,0.970569 -1.997822,1.482405 -1.5554,1.348539 -2.645285,2.985767 -3.291887,5.332804 z" />
    </clipPath>
    <inkscape:path-effect
       effect="powerclip"
       id="path-effect12137-2"
       is_visible="true"
       lpeversion="1"
       inverse="true"
       flatten="false"
       hide_clip="false"
       message="Füllregel Gerade-Ungerade im &lt;b&gt;Füllung und Kontur&lt;/b&gt;-Dialog verwenden, wenn das Anwenden des Ausschnitts mit nachfolgendem Umwandeln in Pfade kein Ergebnis bringt" />
    <clipPath
       clipPathUnits="userSpaceOnUse"
       id="clipath_lpe_path-effect12137-2">
      <path
         style="display:block;fill:none;stroke:#000000;stroke-width:0.01;stroke-linecap:butt;stroke-linejoin:miter;stroke-miterlimit:4;stroke-dasharray:none;stroke-opacity:1"
         d="m 61.110233,40.826071 2.771553,-3.189899 c 0.646602,-2.347037 1.736487,-3.984265 3.291887,-5.332804 0.590352,-0.511836 1.27094,-0.991695 1.997822,-1.482405 0.54516,-0.36803 1.096189,-0.752133 1.660159,-1.137507 1.355601,-0.926312 2.69311,-1.962221 3.879739,-3.214727 0.365062,-0.385319 0.744271,-0.760809 1.090401,-1.172507 0.24955,-0.296813 0.511421,-0.585372 0.75183,-0.895156 0.46555,-0.599884 0.9008,-1.124093 1.229521,-1.607532 l 0.488069,0.278897 c -1.054701,1.77108 -1.4561,2.406208 -2.5136,3.781576 -1.4727,1.915369 -3.274679,3.447521 -5.034679,4.750792 -1.03314,0.765035 -1.957661,1.47533 -2.73122,2.228379 -2.336663,2.507766 -1.829282,3.508722 -2.654427,4.792213 -0.725186,0.920911 -1.656689,1.65426 -2.485033,2.481392 z"
         id="path2"
         sodipodi:nodetypes="ccssssssccsscccc" />
    </clipPath>
    <clipPath
       clipPathUnits="userSpaceOnUse"
       id="clipath_lpe_path-effect12137-2-4">
      <path
         style="display:none;fill:none;stroke:#000000;stroke-width:0.01;stroke-linecap:butt;stroke-linejoin:miter;stroke-miterlimit:4;stroke-dasharray:none;stroke-opacity:1"
         d="m 61.110233,40.826071 2.771553,-3.189899 c 0.646602,-2.347037 1.736487,-3.984265 3.291887,-5.332804 0.590352,-0.511836 1.27094,-0.991695 1.997822,-1.482405 0.54516,-0.36803 1.096189,-0.752133 1.660159,-1.137507 1.355601,-0.926312 2.69311,-1.962221 3.879739,-3.214727 0.365062,-0.385319 0.744271,-0.760809 1.090401,-1.172507 0.24955,-0.296813 0.511421,-0.585372 0.75183,-0.895156 0.46555,-0.599884 0.9008,-1.124093 1.229521,-1.607532 l 0.488069,0.278897 c -1.054701,1.77108 -1.4561,2.406208 -2.5136,3.781576 -1.4727,1.915369 -3.274679,3.447521 -5.034679,4.750792 -1.03314,0.765035 -1.957661,1.47533 -2.73122,2.228379 -2.336663,2.507766 -1.829282,3.508722 -2.654427,4.792213 -0.725186,0.920911 -1.656689,1.65426 -2.485033,2.481392 z"
         id="path2-5"
         sodipodi:nodetypes="ccssssssccsscccc" />
      <path
         id="lpe_path-effect12137-2-4"
         style="fill:none;stroke:#000000;stroke-width:0.01;stroke-linecap:butt;stroke-linejoin:miter;stroke-miterlimit:4;stroke-dasharray:none;stroke-opacity:1"
         class="powerclip"
         d="M 57.541736,17.940038 H 83.017995 V 44.797467 H 57.541736 Z m 3.568497,22.886033 1.742022,0.280712 c 0.828344,-0.827132 1.759847,-1.560481 2.485033,-2.481392 0.825145,-1.283491 0.317764,-2.284447 2.654427,-4.792213 0.773559,-0.753049 1.69808,-1.463344 2.73122,-2.228379 1.76,-1.303271 3.561979,-2.835423 5.034679,-4.750792 1.0575,-1.375368 1.458899,-2.010496 2.5136,-3.781576 l -0.488069,-0.278897 c -0.328721,0.483439 -0.763971,1.007648 -1.229521,1.607532 -0.240409,0.309784 -0.50228,0.598343 -0.75183,0.895156 -0.34613,0.411698 -0.725339,0.787188 -1.090401,1.172507 -1.186629,1.252506 -2.524138,2.288415 -3.879739,3.214727 -0.56397,0.385374 -1.114999,0.769477 -1.660159,1.137507 -0.726882,0.49071 -1.40747,0.970569 -1.997822,1.482405 -1.5554,1.348539 -2.645285,2.985767 -3.291887,5.332804 z" />
    </clipPath>
    <inkscape:path-effect
       effect="powerclip"
       id="path-effect12137-2-3"
       is_visible="true"
       lpeversion="1"
       inverse="true"
       flatten="false"
       hide_clip="false"
       message="Füllregel Gerade-Ungerade im &lt;b&gt;Füllung und Kontur&lt;/b&gt;-Dialog verwenden, wenn das Anwenden des Ausschnitts mit nachfolgendem Umwandeln in Pfade kein Ergebnis bringt" />
    <clipPath
       clipPathUnits="userSpaceOnUse"
       id="clipath_lpe_path-effect12137-2-3">
      <path
         style="display:block;fill:none;stroke:#000000;stroke-width:0.01;stroke-linecap:butt;stroke-linejoin:miter;stroke-miterlimit:4;stroke-dasharray:none;stroke-opacity:1"
         d="m 61.110233,40.826071 2.771553,-3.189899 c 0.646602,-2.347037 1.736487,-3.984265 3.291887,-5.332804 0.590352,-0.511836 1.27094,-0.991695 1.997822,-1.482405 0.54516,-0.36803 1.096189,-0.752133 1.660159,-1.137507 1.355601,-0.926312 2.69311,-1.962221 3.879739,-3.214727 0.365062,-0.385319 0.744271,-0.760809 1.090401,-1.172507 0.24955,-0.296813 0.511421,-0.585372 0.75183,-0.895156 0.46555,-0.599884 0.9008,-1.124093 1.229521,-1.607532 l 0.488069,0.278897 c -1.054701,1.77108 -1.4561,2.406208 -2.5136,3.781576 -1.4727,1.915369 -3.274679,3.447521 -5.034679,4.750792 -1.03314,0.765035 -1.957661,1.47533 -2.73122,2.228379 -2.336663,2.507766 -1.829282,3.508722 -2.654427,4.792213 -0.725186,0.920911 -1.656689,1.65426 -2.485033,2.481392 z"
         id="path3"
         sodipodi:nodetypes="ccssssssccsscccc" />
    </clipPath>
    <clipPath
       clipPathUnits="userSpaceOnUse"
       id="clipath_lpe_path-effect12137-2-3-4">
      <path
         style="display:none;fill:none;stroke:#000000;stroke-width:0.01;stroke-linecap:butt;stroke-linejoin:miter;stroke-miterlimit:4;stroke-dasharray:none;stroke-opacity:1"
         d="m 61.110233,40.826071 2.771553,-3.189899 c 0.646602,-2.347037 1.736487,-3.984265 3.291887,-5.332804 0.590352,-0.511836 1.27094,-0.991695 1.997822,-1.482405 0.54516,-0.36803 1.096189,-0.752133 1.660159,-1.137507 1.355601,-0.926312 2.69311,-1.962221 3.879739,-3.214727 0.365062,-0.385319 0.744271,-0.760809 1.090401,-1.172507 0.24955,-0.296813 0.511421,-0.585372 0.75183,-0.895156 0.46555,-0.599884 0.9008,-1.124093 1.229521,-1.607532 l 0.488069,0.278897 c -1.054701,1.77108 -1.4561,2.406208 -2.5136,3.781576 -1.4727,1.915369 -3.274679,3.447521 -5.034679,4.750792 -1.03314,0.765035 -1.957661,1.47533 -2.73122,2.228379 -2.336663,2.507766 -1.829282,3.508722 -2.654427,4.792213 -0.725186,0.920911 -1.656689,1.65426 -2.485033,2.481392 z"
         id="path3-7"
         sodipodi:nodetypes="ccssssssccsscccc" />
      <path
         id="lpe_path-effect12137-2-3-6"
         style="fill:none;stroke:#000000;stroke-width:0.01;stroke-linecap:butt;stroke-linejoin:miter;stroke-miterlimit:4;stroke-dasharray:none;stroke-opacity:1"
         class="powerclip"
         d="M 57.541736,17.940038 H 83.017995 V 44.797467 H 57.541736 Z m 3.568497,22.886033 1.742022,0.280712 c 0.828344,-0.827132 1.759847,-1.560481 2.485033,-2.481392 0.825145,-1.283491 0.317764,-2.284447 2.654427,-4.792213 0.773559,-0.753049 1.69808,-1.463344 2.73122,-2.228379 1.76,-1.303271 3.561979,-2.835423 5.034679,-4.750792 1.0575,-1.375368 1.458899,-2.010496 2.5136,-3.781576 l -0.488069,-0.278897 c -0.328721,0.483439 -0.763971,1.007648 -1.229521,1.607532 -0.240409,0.309784 -0.50228,0.598343 -0.75183,0.895156 -0.34613,0.411698 -0.725339,0.787188 -1.090401,1.172507 -1.186629,1.252506 -2.524138,2.288415 -3.879739,3.214727 -0.56397,0.385374 -1.114999,0.769477 -1.660159,1.137507 -0.726882,0.49071 -1.40747,0.970569 -1.997822,1.482405 -1.5554,1.348539 -2.645285,2.985767 -3.291887,5.332804 z" />
    </clipPath>
    <inkscape:path-effect
       effect="powerclip"
       id="path-effect12137-2-3-0"
       is_visible="true"
       lpeversion="1"
       inverse="true"
       flatten="false"
       hide_clip="false"
       message="Füllregel Gerade-Ungerade im &lt;b&gt;Füllung und Kontur&lt;/b&gt;-Dialog verwenden, wenn das Anwenden des Ausschnitts mit nachfolgendem Umwandeln in Pfade kein Ergebnis bringt" />
    <clipPath
       clipPathUnits="userSpaceOnUse"
       id="clipath_lpe_path-effect12137-2-3-0">
      <path
         style="display:block;fill:none;stroke:#000000;stroke-width:0.01;stroke-linecap:butt;stroke-linejoin:miter;stroke-miterlimit:4;stroke-dasharray:none;stroke-opacity:1"
         d="m 61.110233,40.826071 2.771553,-3.189899 c 0.646602,-2.347037 1.736487,-3.984265 3.291887,-5.332804 0.590352,-0.511836 1.27094,-0.991695 1.997822,-1.482405 0.54516,-0.36803 1.096189,-0.752133 1.660159,-1.137507 1.355601,-0.926312 2.69311,-1.962221 3.879739,-3.214727 0.365062,-0.385319 0.744271,-0.760809 1.090401,-1.172507 0.24955,-0.296813 0.511421,-0.585372 0.75183,-0.895156 0.46555,-0.599884 0.9008,-1.124093 1.229521,-1.607532 l 0.488069,0.278897 c -1.054701,1.77108 -1.4561,2.406208 -2.5136,3.781576 -1.4727,1.915369 -3.274679,3.447521 -5.034679,4.750792 -1.03314,0.765035 -1.957661,1.47533 -2.73122,2.228379 -2.336663,2.507766 -1.829282,3.508722 -2.654427,4.792213 -0.725186,0.920911 -1.656689,1.65426 -2.485033,2.481392 z"
         id="path7"
         sodipodi:nodetypes="ccssssssccsscccc" />
    </clipPath>
    <radialGradient
       inkscape:collect="always"
       xlink:href="#linearGradient1"
       id="radialGradient2"
       cx="99.175179"
       cy="136.28839"
       fx="99.175179"
       fy="136.28839"
       r="7.3940499"
       gradientTransform="matrix(3.0473391,-1.8703264,0.8368136,1.3634277,-316.86864,135.69345)"
       gradientUnits="userSpaceOnUse" />
    <radialGradient
       inkscape:collect="always"
       xlink:href="#linearGradient3"
       id="radialGradient4"
       cx="109.34701"
       cy="143.97704"
       fx="109.34701"
       fy="143.97704"
       r="9.2108167"
       gradientTransform="matrix(1,0,0,0.39856373,0,86.593016)"
       gradientUnits="userSpaceOnUse" />
    <linearGradient
       inkscape:collect="always"
       xlink:href="#linearGradient4"
       id="linearGradient6"
       x1="100.1362"
       y1="143.97704"
       x2="118.55783"
       y2="143.97704"
       gradientUnits="userSpaceOnUse"
       gradientTransform="translate(0.05000084,0.05000159)" />
    <radialGradient
       inkscape:collect="always"
       xlink:href="#linearGradient7"
       id="radialGradient8"
       cx="101.53915"
       cy="136.81972"
       fx="101.53915"
       fy="136.81972"
       r="6.3141575"
       gradientTransform="matrix(1.3538991,-0.93791089,0.68155697,0.9838455,-130.84682,97.626528)"
       gradientUnits="userSpaceOnUse" />
  </defs>
  <g
     inkscape:label="Ebene 1"
     inkscape:groupmode="layer"
     id="layer1"
     transform="translate(-93.780243,-130.37683)">
    <path
       style="fill:#ff9521;fill-opacity:1;stroke:none;stroke-width:0.1;stroke-linecap:butt;stroke-linejoin:miter;stroke-miterlimit:4;stroke-dasharray:none;stroke-opacity:1"
       d="m 93.864951,147.25623 0.70659,0.12665 c 0.692402,-0.74416 2.038607,-1.53986 2.536354,-2.4211 0.324122,-1.05004 0.646457,-1.8888 1.042462,-2.62046 1.57007,-2.90088 4.834993,-4.23095 7.652123,-7.13795 0.31045,-0.32035 0.63322,-0.64358 0.93772,-1.00399 -0.462,0.44067 -0.86999,0.82482 -1.2598,1.14092 -1.3981,1.17155 -2.93775,2.1515 -4.43608,3.18564 -2.636443,1.82453 -3.728611,3.3728 -4.578738,6.22371 -0.173471,0.41316 -1.767115,1.28156 -2.600631,2.50658 z"
       id="path2548-3-2-1-3-3-0"
       sodipodi:nodetypes="cccsscsccc"
       inkscape:export-filename="path2548-3-2-1-3-3-0.png"
       inkscape:export-xdpi="128"
       inkscape:export-ydpi="128" />
    <path
       style="fill:url(#radialGradient2);fill-opacity:1;stroke:none;stroke-width:0.1;stroke-linecap:butt;stroke-linejoin:miter;stroke-dasharray:none;stroke-opacity:1"
       d="m 96.04247,144.19665 c -1.561048,-1.83182 -3.669222,-8.71434 4.7958,-11.0758 1.81809,-0.51602 3.76514,-0.9257 5.41236,-1.40794 1.25813,-0.36833 2.27866,-0.78839 3.05677,-1.29416 -1.23705,1.6065 -3.09691,3.82569 -5.34822,5.40939 -1.71212,1.2044 -3.17124,2.18978 -4.164173,2.91518 -1.13722,0.83081 -1.928896,1.78465 -2.509041,2.69215 -0.64814,1.01388 -1.017187,1.99026 -1.243496,2.76118 z"
       id="path1-6-4-5"
       sodipodi:nodetypes="ccscsssc" />
    <path
       style="fill:url(#radialGradient8);fill-opacity:1;stroke:none;stroke-width:0.1;stroke-linecap:butt;stroke-linejoin:miter;stroke-dasharray:none;stroke-opacity:1"
       d="m 97.399705,145.52035 c 3.279065,2.16156 8.610465,1.96491 11.003955,-5.63114 0.75088,-2.38303 1.25236,-5.16676 1.62436,-9.40845 -2.02129,3.36784 -3.50391,5.08727 -6.56469,7.50631 -0.95916,0.75806 -2.615,1.83962 -3.727053,3.09262 -1.2977,1.46219 -1.57948,2.4401 -1.920283,3.55611 -0.06821,0.22336 -0.17765,0.49884 -0.416289,0.88455 z"
       id="path4-8"
       sodipodi:nodetypes="cscsssc" />
    <text
       xml:space="preserve"
       style="font-size:11.2889px;line-height:1;font-family:Calibri;-inkscape-font-specification:Calibri;fill:url(#linearGradient6);stroke:none;stroke-width:0.1;stroke-dasharray:none;stroke-opacity:1"
       x="99.640495"
       y="147.59341"
       id="text1"><tspan
         sodipodi:role="line"
         id="tspan1"
         style="font-style:normal;font-variant:normal;font-weight:normal;font-stretch:normal;font-size:11.2889px;line-height:1;font-family:Calibri;-inkscape-font-specification:Calibri;fill:url(#linearGradient6);fill-opacity:1;stroke:none;stroke-width:0.1;stroke-dasharray:none;stroke-opacity:1"
         x="99.640495"
         y="147.59341">OCT</tspan></text>
  </g>
</svg>
